<svg xmlns="http://www.w3.org/2000/svg" xmlnsXlink="http://www.w3.org/1999/xlink" xmlSpace="preserve" version="1.1" viewBox="0 0 382 473.75" x="0px" y="0px" fillRule="evenodd" clipRule="evenodd"><defs></defs><g><path class="fil0" d="M371 282l-142 -46c-3,-2 -4,0 -4,3l0 74c0,5 1,8 5,11l19 14c5,4 7,9 7,15l0 18c0,6 -5,9 -11,8l-47 -14c-5,-1 -9,-1 -14,0l-48 14c-5,1 -10,-2 -10,-8l0 -18c0,-6 2,-11 7,-15l19 -14c4,-3 5,-6 5,-11l0 -74c0,-3 -2,-4 -4,-3l-142 46c-6,1 -11,-2 -11,-8l0 -28c0,-6 3,-11 8,-14l143 -85c4,-2 6,-6 6,-10l0 -96c0,-54 68,-55 68,0l0 96c0,4 1,8 5,10l144 85c5,3 8,8 8,14l0 28c0,6 -5,9 -11,8z"/></g></svg>