<svg xmlns="http://www.w3.org/2000/svg" xmlnsXlink="http://www.w3.org/1999/xlink" viewBox="0 0 32 40" version="1.1" xmlSpace="preserve" fillRule="evenodd" clipRule="evenodd" strokeLinejoin="round" strokeMiterlimit="2"><g transform="matrix(1,0,0,1,-160,-96)"><g><path d="M176,97C169.929,97 165,101.929 165,108C165,111.169 166.647,114.851 168.67,118.111C171.606,122.844 175.276,126.69 175.276,126.69C175.465,126.888 175.727,127 176,127C176.273,127 176.535,126.888 176.724,126.69C176.724,126.69 180.394,122.844 183.33,118.111C185.353,114.851 187,111.169 187,108C187,101.929 182.071,97 176,97ZM176,103C173.24,103 171,105.24 171,108C171,110.76 173.24,113 176,113C178.76,113 181,110.76 181,108C181,105.24 178.76,103 176,103Z"/></g></g></svg>