<svg xmlns="http://www.w3.org/2000/svg" viewBox="0 0 100 125" xmlSpace="preserve"><path fill="none" d="M0 0h100v100H0z"/><path d="M46.499 85.776c8.988 0 17.316-2.855 24.146-7.692L89.561 97c.667.667 1.54 1 2.414 1a3.414 3.414 0 0 0 2.415-5.828L75.903 73.685c7.701-7.6 12.485-18.149 12.485-29.797C88.387 20.791 69.596 2 46.499 2S4.611 20.791 4.611 43.888c0 23.097 18.791 41.888 41.888 41.888zm0-76.948c19.332 0 35.06 15.728 35.06 35.06s-15.728 35.059-35.06 35.059-35.06-15.727-35.06-35.059 15.728-35.06 35.06-35.06z"/></svg>